# xmcd CD database file
#
# Track frame offsets:
#	150
#	12601
#	26976
#	40000
#	54951
#	67881
#	80697
#	92570
#	106827
#	119910
#	133755
#	146614
#	158598
#	172004
#	184114
#	196592
#	209540
#	220436
#	233720
#	249988
#	262599
#	277238
#	289064
#	303702
#	315084
#
# Disc length: 4343 seconds
#
# Revision: 0
# Processed by: cddbd v1.5.1PL2 Copyright (c) Steve Scherf et al.
# Submitted via: CDex 1.51
#
DISCID=6910f519
DTITLE=Various Artist - Downhome Blues Classics, Chicago, Disc 4
DYEAR=2005
DGENRE=Blues
TTITLE0=Jimmy Reed - Jimmy's Boogie
TTITLE1=John Brim - Rattlesnake
TTITLE2=Little Walter - Tonight With A Fool
TTITLE3=Little Johnny Jones - Shelby County Blues
TTITLE4=Albert King - Be On Your Merry Way
TTITLE5=J.B. Lenior - Korea Blues
TTITLE6=Robert Lockwood - (I'm Gonna) Dig Myself A Hole
TTITLE7=Tampa Red - Big Stars Falling
TTITLE8=Junior Wells - Juniors Wail
TTITLE9=Muddy Waters - Who's Gonna Be Your Sweet Man
TTITLE10=John Brim - Gary Stomp
TTITLE11=Morris Pejoe - Gonna Buy Me A Telephone
TTITLE12=Snooky Pryor - Crosstown Blues
TTITLE13=Big Boy Spires - Murmur Low
TTITLE14=Jimmy Reed - Roll And Rhumba
TTITLE15=Jimmy Rogers - Out On The Road
TTITLE16=Johnny Shines - So Glad I Found You
TTITLE17=Jimmy Rogers - Left Me With A Broken Heart
TTITLE18=Big Boy Spires - One Of These Days
TTITLE19=Tampa Red - Green And Lucky Blues
TTITLE20=Essie Sykes - Please Don't Say Goodbye
TTITLE21=Rocky Fuller - Come On Baby Now
TTITLE22=Junior Wells - Bout The Break Of Day
TTITLE23=Big Boy Spires - About To Lose My Mind
TTITLE24=Junior Wells - Eagle Rock
EXTD=YEAR: 2005
EXTT0=
EXTT1=
EXTT2=
EXTT3=
EXTT4=
EXTT5=
EXTT6=
EXTT7=
EXTT8=
EXTT9=
EXTT10=
EXTT11=
EXTT12=
EXTT13=
EXTT14=
EXTT15=
EXTT16=
EXTT17=
EXTT18=
EXTT19=
EXTT20=
EXTT21=
EXTT22=
EXTT23=
EXTT24=
PLAYORDER=
